{"title":"ENTERTAINMENT (2014) - 1CD - DVDSCR-Rip - Hindi - x264 - MP3 - (","uid":10740213,"size":738765660,"categoryP":"video","categoryS":"movies","magnet":"?xt=urn:btih:57918adb4d8633900dcd02f26dbbdd5e98e4f135&amp;dn=ENTERTAINMENT+%282014%29+-+1CD+-+DVDSCR-Rip+-+Hindi+-+x264+-+MP3+-+%28&amp;tr=udp%3A%2F%2Ftracker.openbittorrent.com%3A80&amp;tr=udp%3A%2F%2Fopen.demonii.com%3A1337&amp;tr=udp%3A%2F%2Ftracker.coppersurfer.tk%3A6969&amp;tr=udp%3A%2F%2Fexodus.desync.com%3A6969","seeders":2,"leechers":2,"uploader":"inovai","files":3,"time":1407742262,"description":"Cover:\n &lt;a href=&quot;\nhttp://forum.primetimeshow.in/viewtopic.php?f=7&amp;t=569&quot; rel=&quot;nofollow&quot; target=&quot;_NEW&quot;&gt;\nhttp://forum.primetimeshow.in/viewtopic.php?f=7&amp;t=569&lt;/a&gt;\n\nGENRE: Comedy\n\n\nGeneral Info\nUnique ID : 252062632015935891136757405936202250197 (0xBDA17F41081E4167BA49ADC1051B77D5)\nComplete name : ENTERTAINMENT (2014) - 1CD - DVDSCR-Rip - Hindi - x264 - MP3 - (Audio Fixed) - TEAMTNT EXCLUSIVE.mkv\nFormat : Matroska\nFormat version : Version 2\nFile size : 701 MiB\nDuration : 2h 18mn\nOverall bit rate : 707 Kbps\nEncoded date : UTC 2014-08-08 17:45:26\nWriting application : mkvmerge v7.1.0 ('Good Love') 32bit built on Jul 27 2014 12:59:18\nWriting library : libebml v1.3.0 + libmatroska v1.4.1\n\n\nVideo\nID : 1\nFormat : AVC\nFormat/Info : Advanced Video Codec\nFormat profile : &lt;a class=&quot;__cf_email__&quot; href=&quot;/cdn-cgi/l/email-protection&quot; data-cfemail=&quot;86ceefe1eec6cab4a8b7&quot;&gt;[email&amp;#160;protected]&lt;/a&gt;&lt;script cf-hash='f9e31' type=&quot;text/javascript&quot;&gt;\n/* &lt;![CDATA[ */!function(){try{var t=&quot;currentScript&quot;in document?document.currentScript:function(){for(var t=document.getElementsByTagName(&quot;script&quot;),e=t.length;e--;)if(t[e].getAttribute(&quot;cf-hash&quot;))return t[e]}();if(t&amp;&amp;t.previousSibling){var e,r,n,i,c=t.previousSibling,a=c.getAttribute(&quot;data-cfemail&quot;);if(a){for(e=&quot;&quot;,r=parseInt(a.substr(0,2),16),n=2;a.length-n;n+=2)i=parseInt(a.substr(n,2),16)^r,e+=String.fromCharCode(i);e=document.createTextNode(e),c.parentNode.replaceChild(e,c)}}}catch(u){}}();/* ]]&gt; */&lt;/script&gt;\nFormat settings, CABAC : Yes\nFormat settings, ReFrames : 4 frames\nCodec ID : V_MPEG4/ISO/AVC\nDuration : 2h 18mn\nBit rate : 625 Kbps\nWidth : 640 pixels\nHeight : 256 pixels\nDisplay aspect ratio : 2.500\nFrame rate mode : Constant\nFrame rate : 29.970 fps\nColor space : YUV\nChroma subsampling : 4:2:0\nBit depth : 8 bits\nScan type : Progressive\nBits/(Pixel*Frame) : 0.127\nStream size : 607 MiB (87%)\nLanguage : English\nDefault : Yes\nForced : No\n\n\nAudio\nID : 2\nFormat : MPEG Audio\nFormat version : Version 1\nFormat profile : Layer 3\nMode : Joint stereo\nMode extension : MS Stereo\nCodec ID : A_MPEG/L3\nCodec ID/Hint : MP3\nDuration : 2h 18mn\nBit rate mode : Constant\nBit rate : 80.0 Kbps\nChannel(s) : 2 channels\nSampling rate : 32.0 KHz\nCompression mode : Lossy\nDelay relative to video : 24ms\nStream size : 79.3 MiB (11%)\nDefault : Yes\nForced : No\n\nTHanks to TeamTNT n Mafiaking","torrent":{"xt":"urn:btih:57918adb4d8633900dcd02f26dbbdd5e98e4f135","amp;dn":"ENTERTAINMENT+%282014%29+-+1CD+-+DVDSCR-Rip+-+Hindi+-+x264+-+MP3+-+%28","amp;tr":["udp%3A%2F%2Ftracker.openbittorrent.com%3A80","udp%3A%2F%2Fopen.demonii.com%3A1337","udp%3A%2F%2Ftracker.coppersurfer.tk%3A6969","udp%3A%2F%2Fexodus.desync.com%3A6969"],"infoHash":"57918adb4d8633900dcd02f26dbbdd5e98e4f135","infoHashBuffer":{"type":"Buffer","data":[87,145,138,219,77,134,51,144,13,205,2,242,109,187,221,94,152,228,241,53]},"announce":[],"urlList":[]}}